#!OML:ASF H:\Terrain\Patient Classification 1\Animal1\Tuesday\Animal1.ASF
:FULLY-SPECIFIED
:DEGREES
1224
root 8.00546 16.2369 2.44471 13.3546 11.1335 -365.457
lowerback 7.30159 -0.420648 -1.66119
upperback -10.1671 -0.690074 0.808803
thorax -15.3668 -0.0577403 1.97318
lowerneck -11.702 8.75444 2.36484
upperneck 17.6237 10.0953 8.11283
head 7.01989 5.75367 3.17951
rclavicle 1.13804e-014 -3.18055e-015
rhumerus -77.0293 -27.5791 -35.019
rradius 14.1734
rwrist 5.51164
rhand -28.7372 45.3524
rfingers 7.12502
rthumb -2.09788 15.383
lclavicle 1.13804e-014 -3.18055e-015
lhumerus -88.217 34.1429 12.2751
lradius 15.8267
lwrist -58.658
lhand -25.2853 52.2958
lfingers 7.12502
lthumb -178.764 -457.728
rfemur -30.8175 3.72504 14.0341
rtibia 35.044
rfoot -12.8161 -24.5704
rtoes 3.51543
lfemur -37.7968 0.210731 -18.5247
ltibia 43.9544
lfoot -20.9572 4.73272
ltoes 1.6886
1225
root 8.00776 16.2334 2.4618 13.4995 11.0382 -365.436
lowerback 7.18355 -0.448478 -1.61428
upperback -10.1985 -0.716233 0.835421
thorax -15.3274 -0.0737899 1.9804
lowerneck -11.5984 8.81538 2.43371
upperneck 17.0884 10.246 7.79957
head 6.84447 5.7905 3.0526
rclavicle 8.59744e-015 1.90833e-014
rhumerus -77.712 -27.6177 -34.7951
rradius 13.6263
rwrist 5.88348
rhand -25.9236 41.0966
rfingers 7.12502
rthumb 0.619543 11.1177
lclavicle 8.59744e-015 1.90833e-014
lhumerus -87.778 33.5962 14.576
lradius 15.5668
lwrist -55.5906
lhand -22.6831 50.2742
lfingers 7.12502
lthumb -176.251 -459.779
rfemur -31.1046 3.63186 14.0711
rtibia 35.0779
rfoot -12.4449 -23.8166
rtoes 4.79121
lfemur -37.9063 0.450987 -18.6471
ltibia 43.9736
lfoot -20.8156 5.24571
ltoes -0.378101
1226
root 8.00077 16.2277 2.47881 13.5647 10.928 -365.459
lowerback 7.18908 -0.441009 -1.65642
upperback -10.1814 -0.704604 0.896043
thorax -15.3099 -0.0593304 2.06946
lowerneck -11.7618 8.83488 2.44322
upperneck 16.6711 10.3232 7.52729
head 6.75095 5.79735 2.96245
rclavicle -1.55052e-014 3.97569e-015
rhumerus -77.9303 -27.3322 -35.4944
rradius 13.4203
rwrist 4.96668
rhand -22.8656 36.2104
rfingers 7.12502
rthumb 3.57289 6.26059
lclavicle -1.55052e-014 3.97569e-015
lhumerus -88.5097 33.4553 14.273
lradius 15.1587
lwrist -54.8866
lhand -20.1415 48.0629
lfingers 7.12502
lthumb -173.797 -462.048
rfemur -31.35 3.84642 14.124
rtibia 35.1278
rfoot -12.8633 -23.7163
rtoes 5.7716
lfemur -37.9993 0.612056 -18.614
ltibia 44.0369
lfoot -20.8776 5.19962
ltoes 0.888353
1227
root 7.99325 16.2159 2.49113 13.6218 10.8193 -365.416
lowerback 7.3153 -0.440489 -1.74137
upperback -10.1247 -0.709231 0.970164
thorax -15.321 -0.0465299 2.20257
lowerneck -12.041 8.77403 2.32206
upperneck 16.2215 10.3179 7.20203
head 6.66454 5.75272 2.87351
rclavicle 3.32964e-015 1.03368e-014
rhumerus -77.293 -26.7005 -37.4941
rradius 13.394
rwrist 2.43401
rhand -19.5615 30.1748
rfingers 7.12502
rthumb 6.76317 0.302837
lclavicle 3.32964e-015 1.03368e-014
lhumerus -89.2725 33.3941 13.7287
lradius 14.7663
lwrist -54.784
lhand -17.7938 46.0619
lfingers 7.12502
lthumb -171.531 -464.128
rfemur -31.6542 4.04729 14.0926
rtibia 35.2074
rfoot -12.2351 -24.0401
rtoes 4.20694
lfemur -38.075 0.718051 -18.6516
ltibia 44.077
lfoot -21.03 5.04779
ltoes 2.26348
1228
root 7.99196 16.21 2.50521 13.5653 10.6816 -365.246
lowerback 7.55606 -0.428882 -1.83072
upperback -10.0278 -0.710397 0.977208
thorax -15.3578 -0.0368745 2.26385
lowerneck -12.3003 8.70014 2.02088
upperneck 15.6729 10.3046 7.05107
head 6.52288 5.70864 2.85987
rclavicle 3.18055e-014 1.03368e-014
rhumerus -76.0031 -25.6452 -40.9181
rradius 13.7707
rwrist -2.01459
rhand -15.8785 22.9958
rfingers 7.12502
rthumb 10.3174 -6.73117
lclavicle 3.18055e-014 1.03368e-014
lhumerus -89.2016 33.1302 14.446
lradius 14.6596
lwrist -54.0872
lhand -14.9619 44.519
lfingers 7.12502
lthumb -168.798 -465.8
rfemur -31.7749 3.92843 13.9787
rtibia 35.3512
rfoot -11.4243 -23.9084
rtoes 2.54975
lfemur -37.867 0.702375 -18.8057
ltibia 44.0485
lfoot -21.2211 4.67732
ltoes 6.42673
1229
root 7.98737 16.2089 2.52292 13.3887 10.5295 -365.007
lowerback 7.91291 -0.396487 -1.9913
upperback -9.92778 -0.706323 0.911474
thorax -15.4668 -0.0210492 2.28456
lowerneck -12.2273 8.61403 1.94967
upperneck 14.8246 10.2863 6.70093
head 6.25417 5.65234 2.71998
rclavicle -2.60408e-014 -3.18055e-014
rhumerus -77.6205 -26.2186 -36.762
rradius 13.1066
rwrist 3.82251
rhand -3.92319 22.0681
rfingers 7.12502
rthumb 21.8277 -6.72093
lclavicle -2.60408e-014 -3.18055e-014
lhumerus -89.0832 32.7202 14.7308
lradius 14.6345
lwrist -54.3544
lhand -11.6004 42.7558
lfingers 7.12502
lthumb -165.558 -467.767
rfemur -31.7279 3.71708 13.8423
rtibia 35.6097
rfoot -11.828 -23.3346
rtoes 3.97678
lfemur -37.4589 0.671952 -19.0229
ltibia 43.9528
lfoot -21.2648 4.8403
ltoes 6.0384
1230
root 7.98006 16.2173 2.5415 13.2597 10.4382 -364.878
lowerback 8.16013 -0.381573 -2.01696
upperback -9.87076 -0.707314 0.820775
thorax -15.558 -0.0247809 2.20097
lowerneck -11.0763 8.45801 2.48727
upperneck 12.9614 10.2506 5.57502
head 5.56207 5.53628 2.15817
rclavicle -1.68967e-015 -1.59028e-014
rhumerus -77.7329 -25.7751 -36.4965
rradius 12.9604
rwrist 4.87178
rhand 10.1942 23.5126
rfingers 7.12502
rthumb 35.3105 -2.97034
lclavicle -1.68967e-015 -1.59028e-014
lhumerus -88.4464 32.0803 15.5143
lradius 14.6594
lwrist -54.7357
lhand -7.98438 40.8142
lfingers 7.12502
lthumb -162.076 -469.992
rfemur -31.7195 3.51284 13.8801
rtibia 35.958
rfoot -12.6391 -22.5763
rtoes 8.04963
lfemur -37.1042 0.787113 -19.1618
ltibia 43.8072
lfoot -21.1618 5.3176
ltoes 2.04193
1231
root 7.97601 16.226 2.55475 13.2737 10.4424 -364.922
lowerback 8.15396 -0.402191 -1.78354
upperback -9.8061 -0.702076 0.796675
thorax -15.4755 -0.0530201 2.04056
lowerneck -11.7884 8.44393 2.20309
upperneck 13.0635 10.2193 5.75616
head 5.68834 5.52729 2.29324
rclavicle 3.97569e-016 -1.66979e-014
rhumerus -77.0343 -24.9501 -37.9223
rradius 13.017
rwrist 4.29178
rhand 16.9937 19.6289
rfingers 7.12502
rthumb 41.7249 -5.05268
lclavicle 3.97569e-016 -1.66979e-014
lhumerus -87.2445 31.3793 17.383
lradius 14.8652
lwrist -54.582
lhand -4.18246 39.4367
lfingers 7.12502
lthumb -158.421 -471.746
rfemur -31.8917 3.28999 14.1243
rtibia 36.3707
rfoot -12.3889 -21.986
rtoes 10.2697
lfemur -36.9661 0.825581 -19.0918
ltibia 43.6384
lfoot -21.0922 5.42567
ltoes -0.293932
1232
root 7.96625 16.2257 2.56326 13.3027 10.2927 -364.917
lowerback 8.15387 -0.377258 -1.76256
upperback -9.69687 -0.657994 0.846628
thorax -15.3432 -0.0343208 2.07381
lowerneck -11.8566 8.45399 2.2101
upperneck 12.3688 10.3039 5.33876
head 5.50162 5.52746 2.14865
rclavicle -1.963e-015 -6.36111e-015
rhumerus -76.6972 -24.6407 -37.4737
rradius 12.772
rwrist 5.33131
rhand 19.0263 13.0341
rfingers 7.12502
rthumb 43.6269 -10.9866
lclavicle -1.963e-015 -6.36111e-015
lhumerus -86.2042 30.786 19.0755
lradius 15.1777
lwrist -54.8866
lhand 0.00550974 38.3204
lfingers 7.12502
lthumb -154.404 -473.38
rfemur -32.209 3.40229 14.1968
rtibia 36.7831
rfoot -11.13 -21.8032
rtoes 8.46858
lfemur -36.8808 0.795145 -19.0356
ltibia 43.4933
lfoot -21.0711 5.58157
ltoes -2.96981
